<svg width="28" height="28" viewBox="0 0 28 28" fill="none" xmlns="http://www.w3.org/2000/svg">
    <path fill-rule="evenodd" clip-rule="evenodd"
          d="M11.6667 20.9999C6.51201 20.9999 2.33334 16.8212 2.33334 11.6666C2.33334 6.51193 6.51201 2.33325 11.6667 2.33325C16.8213 2.33325 21 6.51193 21 11.6666C21 13.8234 20.2684 15.8094 19.0398 17.3898L25.325 23.675L23.6751 25.3249L17.3899 19.0398C15.8095 20.2683 13.8235 20.9999 11.6667 20.9999ZM18.6667 11.6666C18.6667 15.5326 15.5327 18.6666 11.6667 18.6666C7.80068 18.6666 4.66667 15.5326 4.66667 11.6666C4.66667 7.8006 7.80068 4.66659 11.6667 4.66659C15.5327 4.66659 18.6667 7.8006 18.6667 11.6666Z"
          fill="currentColor"/>
</svg>
