<svg width="24" height="24" viewBox="0 0 24 24" fill="none" xmlns="http://www.w3.org/2000/svg">
    <path fill-rule="evenodd" clip-rule="evenodd"
          d="M20.463 6.96811C20.787 7.44711 21.066 7.96211 21.292 8.49711C21.52 9.03411 21.697 9.60211 21.817 10.1861C21.938 10.7801 22 11.3901 22 12.0001C22 12.6101 21.938 13.2201 21.817 13.8121C21.697 14.3981 21.52 14.9661 21.292 15.5041C21.066 16.0381 20.787 16.5531 20.462 17.0331C20.14 17.5091 19.771 17.9571 19.364 18.3641C18.957 18.7711 18.51 19.1401 18.034 19.4621C17.55 19.7891 17.035 20.0681 16.503 20.2931C15.959 20.5231 15.39 20.6991 14.813 20.8171C14.223 20.9381 13.612 21.0001 13 21.0001C12.388 21.0001 11.778 20.9381 11.187 20.8171C10.61 20.6991 10.041 20.5221 9.497 20.2921C8.967 20.0681 8.452 19.7891 7.969 19.4631C7.492 19.1411 7.044 18.7721 6.637 18.3641L8.051 16.9501C8.369 17.2671 8.717 17.5551 9.088 17.8051C9.463 18.0591 9.864 18.2761 10.276 18.4501C10.699 18.6291 11.14 18.7661 11.589 18.8581C12.51 19.0471 13.494 19.0461 14.412 18.8581C14.86 18.7661 15.302 18.6291 15.725 18.4501C16.139 18.2751 16.538 18.0571 16.914 17.8041C17.283 17.5541 17.633 17.2661 17.95 16.9491C18.267 16.6331 18.554 16.2841 18.804 15.9131C19.057 15.5391 19.274 15.1401 19.45 14.7241C19.628 14.3061 19.764 13.8651 19.858 13.4101C19.952 12.9511 20 12.4761 20 12.0001C20 11.5241 19.952 11.0491 19.858 10.5861C19.764 10.1331 19.628 9.69211 19.45 9.27511C19.274 8.85811 19.057 8.45811 18.805 8.08611C18.554 7.71411 18.267 7.36511 17.95 7.04911C17.633 6.73211 17.283 6.44411 16.913 6.19311C16.538 5.94111 16.138 5.72311 15.725 5.54911C15.302 5.37011 14.859 5.23311 14.412 5.14111C13.493 4.95311 12.508 4.95211 11.589 5.14111C11.139 5.23311 10.697 5.37011 10.276 5.54911C9.863 5.72411 9.462 5.94111 9.086 6.19511C8.716 6.44511 8.367 6.73211 8.05 7.05011C7.733 7.36811 7.445 7.71611 7.195 8.08711C6.941 8.46211 6.724 8.86311 6.55 9.27511C6.371 9.69811 6.234 10.1391 6.142 10.5881C6.048 11.0481 6 11.5231 6 12.0001C6 12.0041 6.00025 12.0084 6.0005 12.0126C6.00075 12.0169 6.001 12.0211 6.001 12.0251H8L5 16.0001L2 12.0251H4.001C4.001 12.0211 4.00075 12.0169 4.0005 12.0126C4.00025 12.0084 4 12.0041 4 12.0001C4 11.3881 4.062 10.7781 4.183 10.1861C4.301 9.60911 4.478 9.04011 4.708 8.49611C4.932 7.96611 5.211 7.45211 5.537 6.96811C5.859 6.49211 6.229 6.04311 6.636 5.63611C7.043 5.22911 7.492 4.85911 7.969 4.53711C8.453 4.21011 8.967 3.93211 9.498 3.70711C10.041 3.47811 10.609 3.30111 11.188 3.18311C12.37 2.93911 13.633 2.94011 14.814 3.18311C15.39 3.30111 15.959 3.47811 16.504 3.70811C17.035 3.93311 17.55 4.21111 18.032 4.53711C18.51 4.86011 18.956 5.22811 19.364 5.63511C19.772 6.04211 20.141 6.49011 20.463 6.96811ZM12 13.0001V8.00011H14V11.0001H17V13.0001H12Z"
          fill="currentColor"/>
</svg>
