<svg width="24" height="24" viewBox="0 0 24 24" fill="none" xmlns="http://www.w3.org/2000/svg">
<path fill-rule="evenodd" clip-rule="evenodd" d="M7.00002 4C6.7348 4 6.48044 4.10536 6.29291 4.29289C6.10537 4.48043 6.00002 4.73478 6.00002 5V19.0568L11.4188 15.1863C11.7665 14.9379 12.2336 14.9379 12.5813 15.1863L18 19.0568V5C18 4.73478 17.8947 4.48043 17.7071 4.29289C17.5196 4.10536 17.2652 4 17 4H7.00002ZM4.87869 2.87868C5.4413 2.31607 6.20437 2 7.00002 2H17C17.7957 2 18.5587 2.31607 19.1213 2.87868C19.6839 3.44129 20 4.20435 20 5V21C20 21.3746 19.7907 21.7178 19.4576 21.8892C19.1245 22.0606 18.7236 22.0315 18.4188 21.8137L12 17.2289L5.58125 21.8137C5.27644 22.0315 4.8755 22.0606 4.54243 21.8892C4.20936 21.7178 4.00002 21.3746 4.00002 21V5C4.00002 4.20435 4.31609 3.44129 4.87869 2.87868Z" fill="#758291"/>
</svg>
